<?xml version="1.0" encoding="UTF-8" standalone="no"?>
<!DOCTYPE svg PUBLIC "-//W3C//DTD SVG 1.1//EN" "http://www.w3.org/Graphics/SVG/1.1/DTD/svg11.dtd">
<svg xmlns="http://www.w3.org/2000/svg" version="1.1" viewBox="0.00 0.00 500.00 500.00">
<g stroke-width="2.00" fill="none" stroke-linecap="butt">
<path stroke="#eaf7ff" vector-effect="non-scaling-stroke" d="
  M 466.07 228.98
  Q 465.75 229.09 465.72 229.74
  A 0.24 0.11 -86.1 0 1 465.49 229.75
  Q 465.50 229.61 465.50 229.47
  Q 465.48 229.06 465.07 229.03
  C 463.78 228.94 463.40 227.98 463.54 226.77
  C 464.59 217.47 452.61 215.16 445.73 216.33
  Q 438.38 217.58 434.26 224.02
  Q 433.93 224.55 433.56 224.04
  C 425.44 212.93 408.28 212.76 402.00 225.71
  A 0.61 0.61 0.0 0 1 400.96 225.81
  C 393.28 215.81 376.26 216.14 375.96 232.12
  Q 375.95 232.66 375.44 232.84
  Q 372.77 233.78 369.53 233.18"
/>
<path stroke="#91cfa5" vector-effect="non-scaling-stroke" d="
  M 369.53 233.18
  C 368.00 220.18 359.50 205.82 346.26 201.74"
/>
<path stroke="#a7b5ac" vector-effect="non-scaling-stroke" d="
  M 346.26 201.74
  Q 345.61 201.40 345.06 200.54"
/>
<path stroke="#91cfa5" vector-effect="non-scaling-stroke" d="
  M 345.06 200.54
  Q 356.06 204.26 364.53 211.47
  Q 365.11 211.97 365.06 211.20
  Q 364.71 206.05 362.67 201.30
  A 0.44 0.44 0.0 0 1 363.25 200.72
  Q 374.06 205.29 383.93 211.64
  A 0.54 0.54 0.0 0 0 384.73 210.99
  L 382.07 203.89
  A 0.60 0.60 0.0 0 1 382.70 203.09
  C 390.91 204.00 396.95 206.33 404.94 211.05
  Q 405.57 211.42 405.21 210.78
  Q 398.58 198.92 386.07 193.71
  A 0.36 0.36 0.0 0 1 386.07 193.05
  Q 391.32 190.72 396.97 191.80
  A 0.33 0.33 0.0 0 0 397.26 191.24
  C 389.18 183.50 379.83 185.61 369.79 185.06
  A 0.59 0.59 0.0 0 1 369.51 183.96
  L 378.03 178.75
  A 0.45 0.45 0.0 0 0 377.95 177.94
  C 365.61 173.51 351.22 178.12 341.58 186.22
  Q 341.15 186.58 341.23 186.02
  Q 344.10 165.09 329.30 150.85
  Q 328.25 149.84 328.25 151.29
  L 328.25 156.26
  A 0.54 0.54 0.0 0 1 327.28 156.59
  C 321.89 149.76 316.43 143.08 306.92 141.61
  Q 306.42 141.53 306.54 142.03
  L 307.76 147.06
  Q 307.93 147.77 307.24 147.54
  Q 296.69 144.00 285.49 144.92
  A 0.23 0.23 0.0 0 0 285.44 145.37
  Q 297.02 149.52 307.28 156.21
  A 0.84 0.84 0.0 0 1 307.00 157.74
  L 295.33 160.29
  A 0.53 0.53 0.0 0 0 295.26 161.30
  Q 306.96 165.56 317.73 171.85
  C 319.67 172.98 321.20 174.99 323.19 176.51
  A 0.97 0.96 67.5 0 1 322.48 178.24
  L 312.28 176.85
  A 0.40 0.39 59.9 0 0 312.08 177.61
  Q 319.48 180.65 324.71 186.70
  A 0.40 0.40 0.0 0 1 324.21 187.32
  Q 311.90 180.55 297.81 181.15
  A 0.41 0.41 0.0 0 0 297.58 181.88
  L 302.61 185.91
  A 0.44 0.44 0.0 0 1 302.28 186.69
  Q 287.35 184.86 273.68 190.89
  Q 271.56 191.83 273.75 192.58
  L 279.53 194.55
  A 0.28 0.28 0.0 0 1 279.54 195.08
  C 268.07 199.57 252.17 208.91 249.18 221.72
  Q 249.06 222.21 249.49 221.94
  Q 261.23 214.66 274.00 209.42
  A 0.55 0.55 0.0 0 1 274.68 210.22
  Q 272.27 214.17 271.30 218.69
  Q 271.20 219.19 271.67 219.00
  Q 279.57 215.92 287.95 214.64
  C 292.12 214.01 296.00 212.88 300.13 212.09
  Q 300.72 211.98 300.52 212.55
  Q 299.31 215.90 300.06 219.38
  A 0.34 0.34 0.0 0 0 300.63 219.55
  Q 310.18 209.83 322.39 203.40"
/>
<path stroke="#a7b5ac" vector-effect="non-scaling-stroke" d="
  M 322.39 203.40
  Q 323.69 202.84 327.04 205.11"
/>
<path stroke="#aeab9e" vector-effect="non-scaling-stroke" d="
  M 327.04 205.11
  L 325.06 208.62
  Q 324.69 209.28 325.37 209.63
  L 327.75 210.84
  A 0.87 0.86 39.0 0 0 328.65 210.75
  L 333.84 206.80"
/>
<path stroke="#a7b5ac" vector-effect="non-scaling-stroke" d="
  M 333.84 206.80
  Q 335.11 212.88 339.74 213.22"
/>
<path stroke="#91cfa5" vector-effect="non-scaling-stroke" d="
  M 339.74 213.22
  Q 339.83 224.22 335.40 233.77
  A 0.54 0.54 0.0 0 0 336.18 234.45
  L 344.37 229.10
  A 0.71 0.71 0.0 0 1 345.46 229.59
  C 346.97 239.53 342.84 246.08 336.39 254.83
  Q 335.84 255.57 336.75 255.46
  Q 339.47 255.15 341.82 253.83
  A 0.64 0.64 0.0 0 1 342.74 254.21
  Q 345.22 262.76 343.97 271.49
  C 343.70 273.42 342.76 275.90 342.31 278.17
  Q 342.09 279.29 342.83 278.41
  Q 351.58 268.07 356.47 255.42
  Q 356.72 254.76 357.11 255.35
  L 359.84 259.51
  A 0.65 0.65 0.0 0 0 361.00 259.37
  L 363.59 252.10"
/>
<path stroke="#eaf7ff" vector-effect="non-scaling-stroke" d="
  M 363.59 252.10
  Q 372.76 253.75 381.22 252.08
  A 0.65 0.65 0.0 0 1 381.99 252.67
  Q 382.37 257.90 387.57 259.71
  C 393.68 261.83 402.19 261.36 407.16 256.21
  A 0.90 0.90 0.0 0 1 408.57 256.36
  C 414.13 265.20 427.26 261.84 433.62 256.14
  A 0.72 0.72 0.0 0 1 434.60 256.17
  C 442.09 263.59 455.61 264.17 458.92 252.07
  A 0.66 0.65 -80.8 0 1 459.59 251.58
  L 466.97 251.98"
/>
<path stroke="#9bc3e9" vector-effect="non-scaling-stroke" d="
  M 447.77 338.51
  Q 443.35 338.01 440.75 338.00
  Q 412.60 337.90 356.26 338.08"
/>
<path stroke="#e9daab" vector-effect="non-scaling-stroke" d="
  M 356.26 338.08
  C 341.60 314.10 314.65 299.39 287.13 293.73"
/>
<path stroke="#aeab9e" vector-effect="non-scaling-stroke" d="
  M 287.13 293.73
  L 292.88 286.47
  A 0.31 0.31 0.0 0 0 292.70 285.97
  L 280.41 283.38
  A 0.34 0.33 6.3 0 0 280.00 283.70
  L 279.87 292.21"
/>
<path stroke="#e9daab" vector-effect="non-scaling-stroke" d="
  M 279.87 292.21
  C 259.57 287.81 237.51 289.59 217.24 293.19"
/>
<path stroke="#aeab9e" vector-effect="non-scaling-stroke" d="
  M 217.24 293.19
  L 216.94 281.08
  Q 216.92 280.48 216.34 280.62
  L 200.99 284.35
  Q 200.51 284.47 200.82 284.86
  L 208.94 295.03"
/>
<path stroke="#e9daab" vector-effect="non-scaling-stroke" d="
  M 208.94 295.03
  Q 196.95 297.91 192.47 300.50
  Q 187.69 303.28 182.81 305.83
  C 181.71 306.41 180.61 306.18 179.48 307.18
  Q 177.84 308.63 177.57 308.79
  Q 158.69 319.66 147.28 338.01"
/>
<path stroke="#9bc3e9" vector-effect="non-scaling-stroke" d="
  M 147.28 338.01
  L 53.06 338.06
  Q 52.68 338.06 52.33 338.22
  Q 52.16 338.29 51.86 338.37"
/>
<path stroke="#eaf7ff" vector-effect="non-scaling-stroke" d="
  M 37.61 293.46
  Q 45.05 292.82 49.80 287.78
  Q 50.31 287.25 50.80 287.79
  Q 58.37 296.02 68.02 291.22
  C 69.76 290.35 70.18 288.95 70.41 287.19
  A 1.33 1.33 0.0 0 1 72.15 286.10
  Q 79.65 288.60 86.29 284.54
  C 89.17 282.78 90.51 278.98 88.28 276.23
  C 86.73 274.33 83.58 273.32 81.14 272.97
  Q 79.97 272.81 80.03 271.63
  Q 80.31 265.70 75.43 263.32
  C 69.94 260.64 66.37 262.38 61.35 265.60
  Q 60.86 265.92 60.62 265.39
  Q 56.89 257.41 48.64 258.21
  C 45.10 258.56 42.05 261.08 39.29 263.31
  A 0.52 0.51 54.9 0 1 38.52 263.17
  Q 37.70 261.78 36.85 261.96"
/>
<path stroke="#b0ae95" vector-effect="non-scaling-stroke" d="
  M 356.26 338.08
  Q 362.69 349.93 363.56 362.44
  Q 363.60 363.01 363.02 363.01
  L 141.50 362.99
  Q 139.84 362.99 139.99 361.34
  Q 141.03 349.51 147.28 338.01"
/>
<path stroke="#c39549" vector-effect="non-scaling-stroke" d="
  M 217.24 293.19
  L 217.74 295.61
  A 0.84 0.83 69.3 0 1 217.34 296.50
  L 211.58 299.84
  Q 211.06 300.14 210.83 299.59
  L 208.94 295.03"
/>
<path stroke="#649552" vector-effect="non-scaling-stroke" d="
  M 346.26 201.74
  C 346.06 203.44 347.06 204.22 347.20 205.73
  Q 347.84 212.89 339.74 213.22"
/>
<path stroke="#81714b" vector-effect="non-scaling-stroke" d="
  M 333.84 206.80
  Q 333.67 204.78 334.53 202.83
  A 0.50 0.50 0.0 0 0 333.74 202.25
  Q 330.94 204.67 327.04 205.11"
/>
<path stroke="#649552" vector-effect="non-scaling-stroke" d="
  M 345.06 200.54
  C 348.09 193.58 342.54 188.97 335.92 190.51
  Q 335.53 190.61 335.35 190.96
  Q 334.07 193.40 331.83 192.20
  Q 331.31 191.92 330.88 192.34
  L 322.23 200.87
  Q 321.90 201.19 322.00 201.64
  L 322.39 203.40"
/>
<path stroke="#a6d7a5" vector-effect="non-scaling-stroke" d="
  M 369.53 233.18
  L 369.39 237.34
  A 0.32 0.32 0.0 0 1 368.79 237.50
  Q 366.40 233.58 363.22 230.29
  Q 361.97 229.00 362.29 230.76
  C 362.73 233.21 364.02 235.63 364.38 238.05
  Q 365.54 245.81 363.59 252.10"
/>
<path stroke="#c39549" vector-effect="non-scaling-stroke" d="
  M 287.13 293.73
  L 284.80 297.81
  Q 284.48 298.37 283.91 298.08
  L 280.30 296.26
  Q 279.75 295.98 279.77 295.38
  L 279.87 292.21"
/>
<path stroke="#d8ebf7" vector-effect="non-scaling-stroke" d="
  M 304.09 59.90
  L 306.29 58.72
  A 1.06 1.06 0.0 0 0 306.72 57.29
  L 306.27 56.45
  A 2.85 2.22 61.8 0 0 302.97 54.99
  L 302.81 55.07
  A 2.85 2.22 61.8 0 0 302.20 58.63
  L 302.65 59.47
  A 1.06 1.06 0.0 0 0 304.09 59.90"
/>
<path stroke="#eaf7ff" vector-effect="non-scaling-stroke" d="
  M 264.34 65.95
  C 259.91 54.22 245.42 53.50 238.95 63.85
  Q 238.64 64.34 238.31 63.86
  Q 232.45 55.24 223.23 58.17
  C 217.65 59.94 214.17 64.10 216.16 70.10
  A 0.96 0.95 76.0 0 1 215.42 71.34
  C 209.99 72.30 206.61 76.87 208.90 82.23
  Q 211.78 88.99 219.49 90.52
  C 220.73 90.77 222.81 90.28 224.33 90.57
  Q 224.85 90.66 225.02 91.16
  C 228.59 101.74 246.43 101.19 251.11 92.14
  Q 251.39 91.59 251.78 92.07
  Q 259.43 101.51 271.42 97.82
  Q 275.63 96.52 276.38 91.11
  Q 276.53 90.07 277.52 90.40
  C 283.54 92.38 293.20 92.23 297.78 86.65
  C 303.41 79.77 293.83 75.23 288.42 74.63
  Q 287.84 74.57 287.85 73.98
  Q 288.09 63.06 277.23 61.89
  C 271.44 61.26 269.11 63.27 265.26 66.21
  A 0.60 0.59 60.6 0 1 264.34 65.95"
/>
<path stroke="#eaeeb8" vector-effect="non-scaling-stroke" d="
  M 380.04 114.29
  A 28.08 28.08 0.0 0 0 351.96 86.21
  A 28.08 28.08 0.0 0 0 323.88 114.29
  A 28.08 28.08 0.0 0 0 351.96 142.37
  A 28.08 28.08 0.0 0 0 380.04 114.29"
/>
<path stroke="#a7b5ac" vector-effect="non-scaling-stroke" d="
  M 134.79 177.31
  Q 135.79 176.98 134.29 178.34"
/>
<path stroke="#91cfa5" vector-effect="non-scaling-stroke" d="
  M 134.29 178.34
  C 116.78 183.08 103.77 205.03 105.05 222.90
  Q 105.15 224.29 105.80 223.06
  Q 108.85 217.31 113.94 213.25
  A 0.43 0.43 0.0 0 1 114.60 213.77
  Q 107.62 228.65 113.24 244.41
  Q 114.49 247.90 115.48 251.43
  A 0.53 0.53 0.0 0 0 116.42 251.59
  L 120.50 245.58
  Q 120.74 245.23 120.90 245.63
  Q 127.33 261.95 138.73 275.27
  A 0.31 0.31 0.0 0 0 139.25 274.97
  Q 133.86 259.85 138.37 244.37
  A 0.86 0.85 23.0 0 1 139.62 243.87
  Q 142.66 245.65 146.21 245.75
  Q 146.94 245.78 146.47 245.21
  C 138.69 235.79 132.70 225.38 134.96 212.83
  A 0.69 0.69 0.0 0 1 136.06 212.40
  Q 141.11 216.29 146.67 219.38
  Q 148.06 220.15 147.41 218.70
  Q 142.16 206.99 142.21 193.17"
/>
<path stroke="#a7b5ac" vector-effect="non-scaling-stroke" d="
  M 142.21 193.17
  Q 148.28 191.36 149.72 184.86"
/>
<path stroke="#aeab9e" vector-effect="non-scaling-stroke" d="
  M 149.72 184.86
  L 156.19 190.09
  A 0.74 0.74 0.0 0 0 157.03 190.15
  L 160.22 188.23
  A 0.80 0.79 -30.8 0 0 160.50 187.15
  L 157.90 182.75"
/>
<path stroke="#a7b5ac" vector-effect="non-scaling-stroke" d="
  M 157.90 182.75
  L 163.01 180.26"
/>
<path stroke="#91cfa5" vector-effect="non-scaling-stroke" d="
  M 163.01 180.26
  Q 174.04 186.05 177.04 188.47
  Q 184.33 194.32 190.90 200.45
  A 0.69 0.69 0.0 0 0 192.05 200.08
  Q 192.90 195.59 190.88 191.59
  Q 190.53 190.90 191.27 191.11
  C 202.35 194.20 215.53 195.64 227.30 199.98
  A 0.39 0.39 0.0 0 0 227.82 199.52
  Q 226.32 193.50 223.15 188.18
  Q 222.81 187.61 223.43 187.85
  Q 240.43 194.39 255.79 204.30
  A 0.17 0.17 0.0 0 0 256.04 204.10
  C 250.50 187.31 233.37 175.69 217.36 170.31
  Q 216.78 170.12 217.32 169.83
  Q 221.73 167.53 226.70 166.94
  A 0.36 0.36 0.0 0 0 226.85 166.28
  C 216.12 159.52 201.09 158.37 188.98 159.64
  Q 188.36 159.70 188.72 159.19
  Q 191.24 155.61 195.22 153.75
  A 0.40 0.39 36.0 0 0 195.10 153.00
  C 182.43 151.48 168.00 155.76 157.70 163.14
  A 0.05 0.05 0.0 0 1 157.64 163.07
  Q 165.55 153.06 177.24 147.85
  Q 177.70 147.64 177.20 147.59
  C 172.80 147.08 168.30 148.48 163.83 149.39
  Q 162.15 149.73 162.39 148.03
  C 163.26 141.81 192.23 129.86 198.10 127.69
  Q 198.77 127.44 198.18 127.04
  C 194.77 124.72 186.48 124.05 182.24 123.32
  Q 181.67 123.23 182.00 122.76
  C 186.60 116.26 202.50 111.42 210.05 107.63
  Q 210.64 107.33 209.98 107.27
  Q 196.02 106.18 182.81 110.70
  A 0.52 0.51 86.8 0 1 182.14 110.10
  L 183.68 103.48
  A 0.57 0.57 0.0 0 0 182.99 102.80
  Q 169.74 106.02 161.84 117.10
  Q 160.28 119.29 157.06 122.22
  A 0.34 0.33 -21.4 0 1 156.50 121.98
  L 156.50 115.75
  A 0.86 0.86 0.0 0 0 155.10 115.08
  C 143.53 124.50 138.28 141.26 139.97 155.81
  Q 140.16 157.39 140.21 158.90
  Q 140.23 159.58 139.71 159.14
  Q 120.82 142.96 96.04 147.87
  Q 92.45 148.59 95.56 150.53
  L 105.05 156.46
  A 0.57 0.57 0.0 0 1 104.74 157.51
  C 93.34 157.44 78.92 156.21 70.13 165.20
  Q 69.72 165.62 70.31 165.64
  C 75.59 165.88 78.94 165.11 83.80 167.59
  Q 84.60 168.00 83.78 168.36
  Q 68.62 175.00 60.19 189.28
  A 0.49 0.49 0.0 0 0 60.89 189.93
  C 68.76 184.68 79.15 180.46 88.89 180.22
  A 0.45 0.45 0.0 0 1 89.32 180.83
  L 85.66 189.92
  A 0.72 0.72 0.0 0 0 86.71 190.80
  Q 98.96 183.11 112.26 177.39
  A 0.66 0.65 88.9 0 1 113.13 178.23
  Q 110.84 184.18 110.10 190.51
  A 0.47 0.46 72.7 0 0 110.87 190.92
  Q 121.33 181.67 134.79 177.31"
/>
<path stroke="#649552" vector-effect="non-scaling-stroke" d="
  M 163.01 180.26
  Q 163.09 179.10 163.80 178.10
  C 165.96 175.09 165.52 171.08 163.60 168.31
  C 160.76 164.22 155.22 164.44 151.53 167.12
  A 0.98 0.97 -37.8 0 1 150.21 166.96
  C 147.67 163.97 143.66 163.18 139.97 164.67
  Q 132.23 167.78 135.11 176.40
  Q 135.24 176.79 134.97 177.10
  L 134.79 177.31"
/>
<path stroke="#81714b" vector-effect="non-scaling-stroke" d="
  M 157.90 182.75
  Q 153.19 181.86 149.60 179.21
  A 0.46 0.46 0.0 0 0 148.90 179.77
  Q 150.09 182.42 149.72 184.86"
/>
<path stroke="#649552" vector-effect="non-scaling-stroke" d="
  M 142.21 193.17
  Q 134.48 192.40 133.03 185.93
  C 132.46 183.36 133.47 180.82 134.29 178.34"
/>
<path stroke="#d8ebf7" vector-effect="non-scaling-stroke" d="
  M 197.38 154.99
  L 196.89 155.48
  A 1.22 1.22 0.0 0 0 197.86 157.56
  Q 200.98 157.28 200.13 153.81
  A 1.25 1.24 -12.7 0 0 198.66 152.89
  Q 197.26 153.19 197.58 154.08
  Q 197.77 154.60 197.38 154.99"
/>
<path stroke="#aeab9e" vector-effect="non-scaling-stroke" d="
  M 153.81 194.18
  Q 160.91 198.80 165.71 204.56
  Q 166.08 205.00 166.60 204.77
  L 171.37 202.70
  A 0.45 0.44 65.6 0 0 171.59 202.09
  L 164.55 187.76
  Q 164.39 187.43 164.09 187.62
  L 153.81 194.06
  Q 153.71 194.12 153.81 194.18"
/>
<path stroke="#d8ebf7" vector-effect="non-scaling-stroke" d="
  M 444.51 196.16
  L 442.91 198.16
  A 1.05 1.05 0.0 0 0 443.08 199.64
  L 443.77 200.19
  A 2.65 2.20 38.6 0 0 447.21 200.12
  L 447.37 199.92
  A 2.65 2.20 38.6 0 0 446.67 196.54
  L 445.98 196.00
  A 1.05 1.05 0.0 0 0 444.51 196.16"
/>
<path stroke="#aeab9e" vector-effect="non-scaling-stroke" d="
  M 163.40 207.94
  A 0.46 0.46 0.0 0 0 163.28 208.67
  L 174.95 220.44
  A 0.46 0.46 0.0 0 0 175.52 220.50
  L 179.81 217.77
  A 0.46 0.46 0.0 0 0 180.01 217.26
  L 175.92 202.28
  A 0.46 0.46 0.0 0 0 175.27 201.99
  L 163.40 207.94"
/>
<path stroke="#aeab9e" vector-effect="non-scaling-stroke" d="
  M 321.16 209.55
  Q 319.40 215.17 316.23 220.16
  Q 315.82 220.80 316.53 221.09
  L 320.12 222.56
  A 0.92 0.91 -59.2 0 0 321.18 222.29
  Q 324.89 217.69 329.90 214.57
  Q 330.47 214.22 329.90 213.87
  L 322.29 209.13
  A 0.77 0.77 0.0 0 0 321.16 209.55"
/>
<path stroke="#aeab9e" vector-effect="non-scaling-stroke" d="
  M 183.49 236.36
  A 0.47 0.47 0.0 0 0 183.98 236.48
  L 188.96 234.77
  A 0.47 0.47 0.0 0 0 189.26 234.21
  L 184.80 216.98
  A 0.47 0.47 0.0 0 0 184.10 216.70
  L 172.15 224.21
  A 0.47 0.47 0.0 0 0 172.07 224.94
  L 183.49 236.36"
/>
<path stroke="#aeab9e" vector-effect="non-scaling-stroke" d="
  M 312.66 220.40
  Q 311.60 225.93 309.62 231.32
  A 2.94 2.93 -15.1 0 0 314.64 234.20
  Q 318.39 229.67 322.61 225.89
  A 0.41 0.41 0.0 0 0 322.53 225.22
  L 313.01 220.23
  A 0.24 0.24 0.0 0 0 312.66 220.40"
/>
<path stroke="#aeab9e" vector-effect="non-scaling-stroke" d="
  M 306.29 232.29
  A 0.50 0.50 0.0 0 0 305.54 232.59
  L 302.15 246.13
  A 0.50 0.50 0.0 0 0 302.48 246.73
  L 306.33 247.92
  A 0.50 0.50 0.0 0 0 306.83 247.80
  L 315.72 238.91
  A 0.50 0.50 0.0 0 0 315.63 238.14
  L 306.29 232.29"
/>
<path stroke="#aeab9e" vector-effect="non-scaling-stroke" d="
  M 181.57 239.71
  L 193.46 252.19
  Q 193.94 252.69 194.61 252.48
  L 199.16 251.05
  Q 199.88 250.83 199.53 250.17
  Q 195.48 242.45 194.42 233.80
  Q 194.34 233.12 193.72 233.42
  L 181.67 239.17
  Q 181.24 239.37 181.57 239.71"
/>
<path stroke="#aeab9e" vector-effect="non-scaling-stroke" d="
  M 294.25 259.46
  A 0.30 0.30 0.0 0 0 294.49 259.84
  L 298.54 260.61
  A 0.30 0.30 0.0 0 0 298.81 260.52
  L 308.09 250.68
  A 0.30 0.30 0.0 0 0 308.01 250.21
  L 298.78 245.51
  A 0.30 0.30 0.0 0 0 298.36 245.69
  L 294.25 259.46"
/>
<path stroke="#aeab9e" vector-effect="non-scaling-stroke" d="
  M 199.37 268.14
  A 0.34 0.34 0.0 0 0 199.76 268.24
  L 205.39 265.91
  A 0.34 0.34 0.0 0 0 205.59 265.56
  L 204.08 250.69
  A 0.34 0.34 0.0 0 0 203.63 250.41
  L 189.28 255.55
  A 0.34 0.34 0.0 0 0 189.14 256.09
  L 199.37 268.14"
/>
<path stroke="#aeab9e" vector-effect="non-scaling-stroke" d="
  M 289.12 271.16
  A 0.30 0.30 0.0 0 0 289.31 271.47
  L 293.65 273.29
  A 0.30 0.30 0.0 0 0 293.99 273.20
  L 302.19 263.65
  A 0.30 0.30 0.0 0 0 302.07 263.17
  L 290.75 259.21
  A 0.30 0.30 0.0 0 0 290.35 259.46
  L 289.12 271.16"
/>
<path stroke="#aeab9e" vector-effect="non-scaling-stroke" d="
  M 196.78 273.29
  L 203.57 280.80
  A 0.85 0.84 64.9 0 0 204.31 281.07
  L 212.00 279.95
  A 0.55 0.54 76.5 0 0 212.44 279.23
  Q 210.17 272.80 209.55 265.99
  A 0.51 0.50 73.3 0 0 208.81 265.59
  Q 202.61 268.91 195.90 270.99
  A 0.76 0.75 -86.4 0 0 195.42 271.42
  Q 195.00 272.39 195.97 272.75
  Q 196.44 272.92 196.78 273.29"
/>
<path stroke="#aeab9e" vector-effect="non-scaling-stroke" d="
  M 284.04 282.32
  A 0.35 0.35 0.0 0 0 284.33 282.73
  L 290.02 283.64
  A 0.35 0.35 0.0 0 0 290.33 283.54
  L 297.15 276.41
  A 0.35 0.35 0.0 0 0 297.03 275.84
  L 286.35 271.31
  A 0.35 0.35 0.0 0 0 285.87 271.58
  L 284.04 282.32"
/>
<path stroke="#d8ebf7" vector-effect="non-scaling-stroke" d="
  M 56.78 299.74
  Q 59.80 298.65 59.67 295.74
  A 1.71 1.71 0.0 0 0 56.77 294.58
  Q 54.28 297.00 56.20 299.57
  Q 56.42 299.87 56.78 299.74"
/>
<path stroke="#d8ebf7" vector-effect="non-scaling-stroke" d="
  M 342.20 295.95
  L 340.83 294.49
  A 0.73 0.73 0.0 0 0 339.80 294.46
  L 339.18 295.04
  A 3.50 1.65 -43.2 0 0 337.75 298.64
  L 337.86 298.76
  A 3.50 1.65 -43.2 0 0 341.54 297.56
  L 342.16 296.98
  A 0.73 0.73 0.0 0 0 342.20 295.95"
/>
<path stroke="#9ebfe1" vector-effect="non-scaling-stroke" d="
  M 115.23 350.25
  A 1.21 1.21 0.0 0 0 114.02 349.04
  L 71.46 349.04
  A 1.21 1.21 0.0 0 0 70.25 350.25
  L 70.25 350.29
  A 1.21 1.21 0.0 0 0 71.46 351.50
  L 114.02 351.50
  A 1.21 1.21 0.0 0 0 115.23 350.29
  L 115.23 350.25"
/>
<path stroke="#9ebfe1" vector-effect="non-scaling-stroke" d="
  M 423.04 362.09
  A 1.34 1.34 0.0 0 0 421.70 360.75
  L 379.40 360.75
  A 1.34 1.34 0.0 0 0 378.06 362.09
  L 378.06 362.15
  A 1.34 1.34 0.0 0 0 379.40 363.49
  L 421.70 363.49
  A 1.34 1.34 0.0 0 0 423.04 362.15
  L 423.04 362.09"
/>
<path stroke="#9ebfe1" vector-effect="non-scaling-stroke" d="
  M 149.7296 369.2157
  A 1.77 1.77 0.0 0 0 147.9565 367.4488
  L 89.2766 367.5512
  A 1.77 1.77 0.0 0 0 87.5097 369.3243
  L 87.5104 369.7443
  A 1.77 1.77 0.0 0 0 89.2835 371.5112
  L 147.9634 371.4088
  A 1.77 1.77 0.0 0 0 149.7303 369.6357
  L 149.7296 369.2157"
/>
<path stroke="#9ebfe1" vector-effect="non-scaling-stroke" d="
  M 345.9802 372.7784
  A 1.20 1.20 0.0 0 0 344.7844 371.5742
  L 302.2847 371.4258
  A 1.20 1.20 0.0 0 0 301.0805 372.6216
  L 301.0798 372.8216
  A 1.20 1.20 0.0 0 0 302.2756 374.0258
  L 344.7753 374.1742
  A 1.20 1.20 0.0 0 0 345.9795 372.9784
  L 345.9802 372.7784"
/>
<path stroke="#9ebfe1" vector-effect="non-scaling-stroke" d="
  M 264.00 377.28
  A 2.02 2.02 0.0 0 0 261.98 375.26
  L 203.74 375.26
  A 2.02 2.02 0.0 0 0 201.72 377.28
  L 201.72 377.48
  A 2.02 2.02 0.0 0 0 203.74 379.50
  L 261.98 379.50
  A 2.02 2.02 0.0 0 0 264.00 377.48
  L 264.00 377.28"
/>
<path stroke="#9ebfe1" vector-effect="non-scaling-stroke" d="
  M 400.3903 383.8641
  A 1.62 1.62 0.0 0 0 398.7732 382.2413
  L 340.0133 382.1387
  A 1.62 1.62 0.0 0 0 338.3904 383.7559
  L 338.3897 384.1959
  A 1.62 1.62 0.0 0 0 340.0068 385.8187
  L 398.7667 385.9213
  A 1.62 1.62 0.0 0 0 400.3896 384.3041
  L 400.3903 383.8641"
/>
<path stroke="#9ebfe1" vector-effect="non-scaling-stroke" d="
  M 226.68 393.21
  A 1.98 1.98 0.0 0 0 224.70 391.23
  L 133.30 391.23
  A 1.98 1.98 0.0 0 0 131.32 393.21
  L 131.32 393.27
  A 1.98 1.98 0.0 0 0 133.30 395.25
  L 224.70 395.25
  A 1.98 1.98 0.0 0 0 226.68 393.27
  L 226.68 393.21"
/>
<path stroke="#9ebfe1" vector-effect="non-scaling-stroke" d="
  M 251.95 408.44
  A 1.18 1.18 0.0 0 0 250.77 407.26
  L 208.23 407.26
  A 1.18 1.18 0.0 0 0 207.05 408.44
  L 207.05 408.60
  A 1.18 1.18 0.0 0 0 208.23 409.78
  L 250.77 409.78
  A 1.18 1.18 0.0 0 0 251.95 408.60
  L 251.95 408.44"
/>
<path stroke="#9ebfe1" vector-effect="non-scaling-stroke" d="
  M 367.1491 410.0572
  A 1.29 1.29 0.0 0 0 365.8568 408.7695
  L 273.5969 408.9305
  A 1.29 1.29 0.0 0 0 272.3092 410.2228
  L 272.3109 411.2228
  A 1.29 1.29 0.0 0 0 273.6032 412.5105
  L 365.8631 412.3495
  A 1.29 1.29 0.0 0 0 367.1508 411.0572
  L 367.1491 410.0572"
/>
<path stroke="#9ebfe1" vector-effect="non-scaling-stroke" d="
  M 271.89 430.48
  A 1.97 1.97 0.0 0 0 269.92 428.51
  L 178.44 428.51
  A 1.97 1.97 0.0 0 0 176.47 430.48
  L 176.47 430.52
  A 1.97 1.97 0.0 0 0 178.44 432.49
  L 269.92 432.49
  A 1.97 1.97 0.0 0 0 271.89 430.52
  L 271.89 430.48"
/>
</g>
<path fill="#d4efff" d="
  M 466.07 228.98
  Q 465.75 229.09 465.72 229.74
  A 0.24 0.11 -86.1 0 1 465.49 229.75
  Q 465.50 229.61 465.50 229.47
  Q 465.48 229.06 465.07 229.03
  C 463.78 228.94 463.40 227.98 463.54 226.77
  C 464.59 217.47 452.61 215.16 445.73 216.33
  Q 438.38 217.58 434.26 224.02
  Q 433.93 224.55 433.56 224.04
  C 425.44 212.93 408.28 212.76 402.00 225.71
  A 0.61 0.61 0.0 0 1 400.96 225.81
  C 393.28 215.81 376.26 216.14 375.96 232.12
  Q 375.95 232.66 375.44 232.84
  Q 372.77 233.78 369.53 233.18
  C 368.00 220.18 359.50 205.82 346.26 201.74
  Q 345.61 201.40 345.06 200.54
  Q 356.06 204.26 364.53 211.47
  Q 365.11 211.97 365.06 211.20
  Q 364.71 206.05 362.67 201.30
  A 0.44 0.44 0.0 0 1 363.25 200.72
  Q 374.06 205.29 383.93 211.64
  A 0.54 0.54 0.0 0 0 384.73 210.99
  L 382.07 203.89
  A 0.60 0.60 0.0 0 1 382.70 203.09
  C 390.91 204.00 396.95 206.33 404.94 211.05
  Q 405.57 211.42 405.21 210.78
  Q 398.58 198.92 386.07 193.71
  A 0.36 0.36 0.0 0 1 386.07 193.05
  Q 391.32 190.72 396.97 191.80
  A 0.33 0.33 0.0 0 0 397.26 191.24
  C 389.18 183.50 379.83 185.61 369.79 185.06
  A 0.59 0.59 0.0 0 1 369.51 183.96
  L 378.03 178.75
  A 0.45 0.45 0.0 0 0 377.95 177.94
  C 365.61 173.51 351.22 178.12 341.58 186.22
  Q 341.15 186.58 341.23 186.02
  Q 344.10 165.09 329.30 150.85
  Q 328.25 149.84 328.25 151.29
  L 328.25 156.26
  A 0.54 0.54 0.0 0 1 327.28 156.59
  C 321.89 149.76 316.43 143.08 306.92 141.61
  Q 306.42 141.53 306.54 142.03
  L 307.76 147.06
  Q 307.93 147.77 307.24 147.54
  Q 296.69 144.00 285.49 144.92
  A 0.23 0.23 0.0 0 0 285.44 145.37
  Q 297.02 149.52 307.28 156.21
  A 0.84 0.84 0.0 0 1 307.00 157.74
  L 295.33 160.29
  A 0.53 0.53 0.0 0 0 295.26 161.30
  Q 306.96 165.56 317.73 171.85
  C 319.67 172.98 321.20 174.99 323.19 176.51
  A 0.97 0.96 67.5 0 1 322.48 178.24
  L 312.28 176.85
  A 0.40 0.39 59.9 0 0 312.08 177.61
  Q 319.48 180.65 324.71 186.70
  A 0.40 0.40 0.0 0 1 324.21 187.32
  Q 311.90 180.55 297.81 181.15
  A 0.41 0.41 0.0 0 0 297.58 181.88
  L 302.61 185.91
  A 0.44 0.44 0.0 0 1 302.28 186.69
  Q 287.35 184.86 273.68 190.89
  Q 271.56 191.83 273.75 192.58
  L 279.53 194.55
  A 0.28 0.28 0.0 0 1 279.54 195.08
  C 268.07 199.57 252.17 208.91 249.18 221.72
  Q 249.06 222.21 249.49 221.94
  Q 261.23 214.66 274.00 209.42
  A 0.55 0.55 0.0 0 1 274.68 210.22
  Q 272.27 214.17 271.30 218.69
  Q 271.20 219.19 271.67 219.00
  Q 279.57 215.92 287.95 214.64
  C 292.12 214.01 296.00 212.88 300.13 212.09
  Q 300.72 211.98 300.52 212.55
  Q 299.31 215.90 300.06 219.38
  A 0.34 0.34 0.0 0 0 300.63 219.55
  Q 310.18 209.83 322.39 203.40
  Q 323.69 202.84 327.04 205.11
  L 325.06 208.62
  Q 324.69 209.28 325.37 209.63
  L 327.75 210.84
  A 0.87 0.86 39.0 0 0 328.65 210.75
  L 333.84 206.80
  Q 335.11 212.88 339.74 213.22
  Q 339.83 224.22 335.40 233.77
  A 0.54 0.54 0.0 0 0 336.18 234.45
  L 344.37 229.10
  A 0.71 0.71 0.0 0 1 345.46 229.59
  C 346.97 239.53 342.84 246.08 336.39 254.83
  Q 335.84 255.57 336.75 255.46
  Q 339.47 255.15 341.82 253.83
  A 0.64 0.64 0.0 0 1 342.74 254.21
  Q 345.22 262.76 343.97 271.49
  C 343.70 273.42 342.76 275.90 342.31 278.17
  Q 342.09 279.29 342.83 278.41
  Q 351.58 268.07 356.47 255.42
  Q 356.72 254.76 357.11 255.35
  L 359.84 259.51
  A 0.65 0.65 0.0 0 0 361.00 259.37
  L 363.59 252.10
  Q 372.76 253.75 381.22 252.08
  A 0.65 0.65 0.0 0 1 381.99 252.67
  Q 382.37 257.90 387.57 259.71
  C 393.68 261.83 402.19 261.36 407.16 256.21
  A 0.90 0.90 0.0 0 1 408.57 256.36
  C 414.13 265.20 427.26 261.84 433.62 256.14
  A 0.72 0.72 0.0 0 1 434.60 256.17
  C 442.09 263.59 455.61 264.17 458.92 252.07
  A 0.66 0.65 -80.8 0 1 459.59 251.58
  L 466.97 251.98
  Q 466.06 297.27 447.77 338.51
  Q 443.35 338.01 440.75 338.00
  Q 412.60 337.90 356.26 338.08
  C 341.60 314.10 314.65 299.39 287.13 293.73
  L 292.88 286.47
  A 0.31 0.31 0.0 0 0 292.70 285.97
  L 280.41 283.38
  A 0.34 0.33 6.3 0 0 280.00 283.70
  L 279.87 292.21
  C 259.57 287.81 237.51 289.59 217.24 293.19
  L 216.94 281.08
  Q 216.92 280.48 216.34 280.62
  L 200.99 284.35
  Q 200.51 284.47 200.82 284.86
  L 208.94 295.03
  Q 196.95 297.91 192.47 300.50
  Q 187.69 303.28 182.81 305.83
  C 181.71 306.41 180.61 306.18 179.48 307.18
  Q 177.84 308.63 177.57 308.79
  Q 158.69 319.66 147.28 338.01
  L 53.06 338.06
  Q 52.68 338.06 52.33 338.22
  Q 52.16 338.29 51.86 338.37
  Q 47.44 328.25 44.40 317.76
  C 43.74 315.49 42.41 313.37 41.74 311.25
  Q 39.25 303.40 37.61 293.46
  Q 45.05 292.82 49.80 287.78
  Q 50.31 287.25 50.80 287.79
  Q 58.37 296.02 68.02 291.22
  C 69.76 290.35 70.18 288.95 70.41 287.19
  A 1.33 1.33 0.0 0 1 72.15 286.10
  Q 79.65 288.60 86.29 284.54
  C 89.17 282.78 90.51 278.98 88.28 276.23
  C 86.73 274.33 83.58 273.32 81.14 272.97
  Q 79.97 272.81 80.03 271.63
  Q 80.31 265.70 75.43 263.32
  C 69.94 260.64 66.37 262.38 61.35 265.60
  Q 60.86 265.92 60.62 265.39
  Q 56.89 257.41 48.64 258.21
  C 45.10 258.56 42.05 261.08 39.29 263.31
  A 0.52 0.51 54.9 0 1 38.52 263.17
  Q 37.70 261.78 36.85 261.96
  L 33.77 258.51
  Q 33.43 258.13 33.41 257.62
  C 30.05 158.62 93.10 71.50 187.49 42.49
  C 294.80 9.52 407.56 65.38 450.58 167.73
  C 453.75 175.26 456.21 184.04 458.93 192.27
  Q 463.88 207.27 466.07 228.98
  Z
  M 304.09 59.90
  L 306.29 58.72
  A 1.06 1.06 0.0 0 0 306.72 57.29
  L 306.27 56.45
  A 2.85 2.22 61.8 0 0 302.97 54.99
  L 302.81 55.07
  A 2.85 2.22 61.8 0 0 302.20 58.63
  L 302.65 59.47
  A 1.06 1.06 0.0 0 0 304.09 59.90
  Z
  M 264.34 65.95
  C 259.91 54.22 245.42 53.50 238.95 63.85
  Q 238.64 64.34 238.31 63.86
  Q 232.45 55.24 223.23 58.17
  C 217.65 59.94 214.17 64.10 216.16 70.10
  A 0.96 0.95 76.0 0 1 215.42 71.34
  C 209.99 72.30 206.61 76.87 208.90 82.23
  Q 211.78 88.99 219.49 90.52
  C 220.73 90.77 222.81 90.28 224.33 90.57
  Q 224.85 90.66 225.02 91.16
  C 228.59 101.74 246.43 101.19 251.11 92.14
  Q 251.39 91.59 251.78 92.07
  Q 259.43 101.51 271.42 97.82
  Q 275.63 96.52 276.38 91.11
  Q 276.53 90.07 277.52 90.40
  C 283.54 92.38 293.20 92.23 297.78 86.65
  C 303.41 79.77 293.83 75.23 288.42 74.63
  Q 287.84 74.57 287.85 73.98
  Q 288.09 63.06 277.23 61.89
  C 271.44 61.26 269.11 63.27 265.26 66.21
  A 0.60 0.59 60.6 0 1 264.34 65.95
  Z
  M 380.04 114.29
  A 28.08 28.08 0.0 0 0 351.96 86.21
  A 28.08 28.08 0.0 0 0 323.88 114.29
  A 28.08 28.08 0.0 0 0 351.96 142.37
  A 28.08 28.08 0.0 0 0 380.04 114.29
  Z
  M 134.79 177.31
  Q 135.79 176.98 134.29 178.34
  C 116.78 183.08 103.77 205.03 105.05 222.90
  Q 105.15 224.29 105.80 223.06
  Q 108.85 217.31 113.94 213.25
  A 0.43 0.43 0.0 0 1 114.60 213.77
  Q 107.62 228.65 113.24 244.41
  Q 114.49 247.90 115.48 251.43
  A 0.53 0.53 0.0 0 0 116.42 251.59
  L 120.50 245.58
  Q 120.74 245.23 120.90 245.63
  Q 127.33 261.95 138.73 275.27
  A 0.31 0.31 0.0 0 0 139.25 274.97
  Q 133.86 259.85 138.37 244.37
  A 0.86 0.85 23.0 0 1 139.62 243.87
  Q 142.66 245.65 146.21 245.75
  Q 146.94 245.78 146.47 245.21
  C 138.69 235.79 132.70 225.38 134.96 212.83
  A 0.69 0.69 0.0 0 1 136.06 212.40
  Q 141.11 216.29 146.67 219.38
  Q 148.06 220.15 147.41 218.70
  Q 142.16 206.99 142.21 193.17
  Q 148.28 191.36 149.72 184.86
  L 156.19 190.09
  A 0.74 0.74 0.0 0 0 157.03 190.15
  L 160.22 188.23
  A 0.80 0.79 -30.8 0 0 160.50 187.15
  L 157.90 182.75
  L 163.01 180.26
  Q 174.04 186.05 177.04 188.47
  Q 184.33 194.32 190.90 200.45
  A 0.69 0.69 0.0 0 0 192.05 200.08
  Q 192.90 195.59 190.88 191.59
  Q 190.53 190.90 191.27 191.11
  C 202.35 194.20 215.53 195.64 227.30 199.98
  A 0.39 0.39 0.0 0 0 227.82 199.52
  Q 226.32 193.50 223.15 188.18
  Q 222.81 187.61 223.43 187.85
  Q 240.43 194.39 255.79 204.30
  A 0.17 0.17 0.0 0 0 256.04 204.10
  C 250.50 187.31 233.37 175.69 217.36 170.31
  Q 216.78 170.12 217.32 169.83
  Q 221.73 167.53 226.70 166.94
  A 0.36 0.36 0.0 0 0 226.85 166.28
  C 216.12 159.52 201.09 158.37 188.98 159.64
  Q 188.36 159.70 188.72 159.19
  Q 191.24 155.61 195.22 153.75
  A 0.40 0.39 36.0 0 0 195.10 153.00
  C 182.43 151.48 168.00 155.76 157.70 163.14
  A 0.05 0.05 0.0 0 1 157.64 163.07
  Q 165.55 153.06 177.24 147.85
  Q 177.70 147.64 177.20 147.59
  C 172.80 147.08 168.30 148.48 163.83 149.39
  Q 162.15 149.73 162.39 148.03
  C 163.26 141.81 192.23 129.86 198.10 127.69
  Q 198.77 127.44 198.18 127.04
  C 194.77 124.72 186.48 124.05 182.24 123.32
  Q 181.67 123.23 182.00 122.76
  C 186.60 116.26 202.50 111.42 210.05 107.63
  Q 210.64 107.33 209.98 107.27
  Q 196.02 106.18 182.81 110.70
  A 0.52 0.51 86.8 0 1 182.14 110.10
  L 183.68 103.48
  A 0.57 0.57 0.0 0 0 182.99 102.80
  Q 169.74 106.02 161.84 117.10
  Q 160.28 119.29 157.06 122.22
  A 0.34 0.33 -21.4 0 1 156.50 121.98
  L 156.50 115.75
  A 0.86 0.86 0.0 0 0 155.10 115.08
  C 143.53 124.50 138.28 141.26 139.97 155.81
  Q 140.16 157.39 140.21 158.90
  Q 140.23 159.58 139.71 159.14
  Q 120.82 142.96 96.04 147.87
  Q 92.45 148.59 95.56 150.53
  L 105.05 156.46
  A 0.57 0.57 0.0 0 1 104.74 157.51
  C 93.34 157.44 78.92 156.21 70.13 165.20
  Q 69.72 165.62 70.31 165.64
  C 75.59 165.88 78.94 165.11 83.80 167.59
  Q 84.60 168.00 83.78 168.36
  Q 68.62 175.00 60.19 189.28
  A 0.49 0.49 0.0 0 0 60.89 189.93
  C 68.76 184.68 79.15 180.46 88.89 180.22
  A 0.45 0.45 0.0 0 1 89.32 180.83
  L 85.66 189.92
  A 0.72 0.72 0.0 0 0 86.71 190.80
  Q 98.96 183.11 112.26 177.39
  A 0.66 0.65 88.9 0 1 113.13 178.23
  Q 110.84 184.18 110.10 190.51
  A 0.47 0.46 72.7 0 0 110.87 190.92
  Q 121.33 181.67 134.79 177.31
  Z
  M 197.38 154.99
  L 196.89 155.48
  A 1.22 1.22 0.0 0 0 197.86 157.56
  Q 200.98 157.28 200.13 153.81
  A 1.25 1.24 -12.7 0 0 198.66 152.89
  Q 197.26 153.19 197.58 154.08
  Q 197.77 154.60 197.38 154.99
  Z
  M 153.81 194.18
  Q 160.91 198.80 165.71 204.56
  Q 166.08 205.00 166.60 204.77
  L 171.37 202.70
  A 0.45 0.44 65.6 0 0 171.59 202.09
  L 164.55 187.76
  Q 164.39 187.43 164.09 187.62
  L 153.81 194.06
  Q 153.71 194.12 153.81 194.18
  Z
  M 444.51 196.16
  L 442.91 198.16
  A 1.05 1.05 0.0 0 0 443.08 199.64
  L 443.77 200.19
  A 2.65 2.20 38.6 0 0 447.21 200.12
  L 447.37 199.92
  A 2.65 2.20 38.6 0 0 446.67 196.54
  L 445.98 196.00
  A 1.05 1.05 0.0 0 0 444.51 196.16
  Z
  M 163.40 207.94
  A 0.46 0.46 0.0 0 0 163.28 208.67
  L 174.95 220.44
  A 0.46 0.46 0.0 0 0 175.52 220.50
  L 179.81 217.77
  A 0.46 0.46 0.0 0 0 180.01 217.26
  L 175.92 202.28
  A 0.46 0.46 0.0 0 0 175.27 201.99
  L 163.40 207.94
  Z
  M 321.16 209.55
  Q 319.40 215.17 316.23 220.16
  Q 315.82 220.80 316.53 221.09
  L 320.12 222.56
  A 0.92 0.91 -59.2 0 0 321.18 222.29
  Q 324.89 217.69 329.90 214.57
  Q 330.47 214.22 329.90 213.87
  L 322.29 209.13
  A 0.77 0.77 0.0 0 0 321.16 209.55
  Z
  M 183.49 236.36
  A 0.47 0.47 0.0 0 0 183.98 236.48
  L 188.96 234.77
  A 0.47 0.47 0.0 0 0 189.26 234.21
  L 184.80 216.98
  A 0.47 0.47 0.0 0 0 184.10 216.70
  L 172.15 224.21
  A 0.47 0.47 0.0 0 0 172.07 224.94
  L 183.49 236.36
  Z
  M 312.66 220.40
  Q 311.60 225.93 309.62 231.32
  A 2.94 2.93 -15.1 0 0 314.64 234.20
  Q 318.39 229.67 322.61 225.89
  A 0.41 0.41 0.0 0 0 322.53 225.22
  L 313.01 220.23
  A 0.24 0.24 0.0 0 0 312.66 220.40
  Z
  M 306.29 232.29
  A 0.50 0.50 0.0 0 0 305.54 232.59
  L 302.15 246.13
  A 0.50 0.50 0.0 0 0 302.48 246.73
  L 306.33 247.92
  A 0.50 0.50 0.0 0 0 306.83 247.80
  L 315.72 238.91
  A 0.50 0.50 0.0 0 0 315.63 238.14
  L 306.29 232.29
  Z
  M 181.57 239.71
  L 193.46 252.19
  Q 193.94 252.69 194.61 252.48
  L 199.16 251.05
  Q 199.88 250.83 199.53 250.17
  Q 195.48 242.45 194.42 233.80
  Q 194.34 233.12 193.72 233.42
  L 181.67 239.17
  Q 181.24 239.37 181.57 239.71
  Z
  M 294.25 259.46
  A 0.30 0.30 0.0 0 0 294.49 259.84
  L 298.54 260.61
  A 0.30 0.30 0.0 0 0 298.81 260.52
  L 308.09 250.68
  A 0.30 0.30 0.0 0 0 308.01 250.21
  L 298.78 245.51
  A 0.30 0.30 0.0 0 0 298.36 245.69
  L 294.25 259.46
  Z
  M 199.37 268.14
  A 0.34 0.34 0.0 0 0 199.76 268.24
  L 205.39 265.91
  A 0.34 0.34 0.0 0 0 205.59 265.56
  L 204.08 250.69
  A 0.34 0.34 0.0 0 0 203.63 250.41
  L 189.28 255.55
  A 0.34 0.34 0.0 0 0 189.14 256.09
  L 199.37 268.14
  Z
  M 289.12 271.16
  A 0.30 0.30 0.0 0 0 289.31 271.47
  L 293.65 273.29
  A 0.30 0.30 0.0 0 0 293.99 273.20
  L 302.19 263.65
  A 0.30 0.30 0.0 0 0 302.07 263.17
  L 290.75 259.21
  A 0.30 0.30 0.0 0 0 290.35 259.46
  L 289.12 271.16
  Z
  M 196.78 273.29
  L 203.57 280.80
  A 0.85 0.84 64.9 0 0 204.31 281.07
  L 212.00 279.95
  A 0.55 0.54 76.5 0 0 212.44 279.23
  Q 210.17 272.80 209.55 265.99
  A 0.51 0.50 73.3 0 0 208.81 265.59
  Q 202.61 268.91 195.90 270.99
  A 0.76 0.75 -86.4 0 0 195.42 271.42
  Q 195.00 272.39 195.97 272.75
  Q 196.44 272.92 196.78 273.29
  Z
  M 284.04 282.32
  A 0.35 0.35 0.0 0 0 284.33 282.73
  L 290.02 283.64
  A 0.35 0.35 0.0 0 0 290.33 283.54
  L 297.15 276.41
  A 0.35 0.35 0.0 0 0 297.03 275.84
  L 286.35 271.31
  A 0.35 0.35 0.0 0 0 285.87 271.58
  L 284.04 282.32
  Z
  M 56.78 299.74
  Q 59.80 298.65 59.67 295.74
  A 1.71 1.71 0.0 0 0 56.77 294.58
  Q 54.28 297.00 56.20 299.57
  Q 56.42 299.87 56.78 299.74
  Z
  M 342.20 295.95
  L 340.83 294.49
  A 0.73 0.73 0.0 0 0 339.80 294.46
  L 339.18 295.04
  A 3.50 1.65 -43.2 0 0 337.75 298.64
  L 337.86 298.76
  A 3.50 1.65 -43.2 0 0 341.54 297.56
  L 342.16 296.98
  A 0.73 0.73 0.0 0 0 342.20 295.95
  Z"
/>
<path fill="#dbe6ee" d="
  M 304.09 59.90
  A 1.06 1.06 0.0 0 1 302.65 59.47
  L 302.20 58.63
  A 2.85 2.22 61.8 0 1 302.81 55.07
  L 302.97 54.99
  A 2.85 2.22 61.8 0 1 306.27 56.45
  L 306.72 57.29
  A 1.06 1.06 0.0 0 1 306.29 58.72
  L 304.09 59.90
  Z"
/>
<path fill="#ffffff" d="
  M 265.26 66.21
  C 269.11 63.27 271.44 61.26 277.23 61.89
  Q 288.09 63.06 287.85 73.98
  Q 287.84 74.57 288.42 74.63
  C 293.83 75.23 303.41 79.77 297.78 86.65
  C 293.20 92.23 283.54 92.38 277.52 90.40
  Q 276.53 90.07 276.38 91.11
  Q 275.63 96.52 271.42 97.82
  Q 259.43 101.51 251.78 92.07
  Q 251.39 91.59 251.11 92.14
  C 246.43 101.19 228.59 101.74 225.02 91.16
  Q 224.85 90.66 224.33 90.57
  C 222.81 90.28 220.73 90.77 219.49 90.52
  Q 211.78 88.99 208.90 82.23
  C 206.61 76.87 209.99 72.30 215.42 71.34
  A 0.96 0.95 76.0 0 0 216.16 70.10
  C 214.17 64.10 217.65 59.94 223.23 58.17
  Q 232.45 55.24 238.31 63.86
  Q 238.64 64.34 238.95 63.85
  C 245.42 53.50 259.91 54.22 264.34 65.95
  A 0.60 0.59 60.6 0 0 265.26 66.21
  Z"
/>
<circle fill="#ffed71" cx="351.96" cy="114.29" r="28.08"/>
<path fill="#4daf4a" d="
  M 163.01 180.26
  Q 163.09 179.10 163.80 178.10
  C 165.96 175.09 165.52 171.08 163.60 168.31
  C 160.76 164.22 155.22 164.44 151.53 167.12
  A 0.98 0.97 -37.8 0 1 150.21 166.96
  C 147.67 163.97 143.66 163.18 139.97 164.67
  Q 132.23 167.78 135.11 176.40
  Q 135.24 176.79 134.97 177.10
  L 134.79 177.31
  Q 121.33 181.67 110.87 190.92
  A 0.47 0.46 72.7 0 1 110.10 190.51
  Q 110.84 184.18 113.13 178.23
  A 0.66 0.65 88.9 0 0 112.26 177.39
  Q 98.96 183.11 86.71 190.80
  A 0.72 0.72 0.0 0 1 85.66 189.92
  L 89.32 180.83
  A 0.45 0.45 0.0 0 0 88.89 180.22
  C 79.15 180.46 68.76 184.68 60.89 189.93
  A 0.49 0.49 0.0 0 1 60.19 189.28
  Q 68.62 175.00 83.78 168.36
  Q 84.60 168.00 83.80 167.59
  C 78.94 165.11 75.59 165.88 70.31 165.64
  Q 69.72 165.62 70.13 165.20
  C 78.92 156.21 93.34 157.44 104.74 157.51
  A 0.57 0.57 0.0 0 0 105.05 156.46
  L 95.56 150.53
  Q 92.45 148.59 96.04 147.87
  Q 120.82 142.96 139.71 159.14
  Q 140.23 159.58 140.21 158.90
  Q 140.16 157.39 139.97 155.81
  C 138.28 141.26 143.53 124.50 155.10 115.08
  A 0.86 0.86 0.0 0 1 156.50 115.75
  L 156.50 121.98
  A 0.34 0.33 -21.4 0 0 157.06 122.22
  Q 160.28 119.29 161.84 117.10
  Q 169.74 106.02 182.99 102.80
  A 0.57 0.57 0.0 0 1 183.68 103.48
  L 182.14 110.10
  A 0.52 0.51 86.8 0 0 182.81 110.70
  Q 196.02 106.18 209.98 107.27
  Q 210.64 107.33 210.05 107.63
  C 202.50 111.42 186.60 116.26 182.00 122.76
  Q 181.67 123.23 182.24 123.32
  C 186.48 124.05 194.77 124.72 198.18 127.04
  Q 198.77 127.44 198.10 127.69
  C 192.23 129.86 163.26 141.81 162.39 148.03
  Q 162.15 149.73 163.83 149.39
  C 168.30 148.48 172.80 147.08 177.20 147.59
  Q 177.70 147.64 177.24 147.85
  Q 165.55 153.06 157.64 163.07
  A 0.05 0.05 0.0 0 0 157.70 163.14
  C 168.00 155.76 182.43 151.48 195.10 153.00
  A 0.40 0.39 36.0 0 1 195.22 153.75
  Q 191.24 155.61 188.72 159.19
  Q 188.36 159.70 188.98 159.64
  C 201.09 158.37 216.12 159.52 226.85 166.28
  A 0.36 0.36 0.0 0 1 226.70 166.94
  Q 221.73 167.53 217.32 169.83
  Q 216.78 170.12 217.36 170.31
  C 233.37 175.69 250.50 187.31 256.04 204.10
  A 0.17 0.17 0.0 0 1 255.79 204.30
  Q 240.43 194.39 223.43 187.85
  Q 222.81 187.61 223.15 188.18
  Q 226.32 193.50 227.82 199.52
  A 0.39 0.39 0.0 0 1 227.30 199.98
  C 215.53 195.64 202.35 194.20 191.27 191.11
  Q 190.53 190.90 190.88 191.59
  Q 192.90 195.59 192.05 200.08
  A 0.69 0.69 0.0 0 1 190.90 200.45
  Q 184.33 194.32 177.04 188.47
  Q 174.04 186.05 163.01 180.26
  Z"
/>
<path fill="#4daf4a" d="
  M 345.06 200.54
  C 348.09 193.58 342.54 188.97 335.92 190.51
  Q 335.53 190.61 335.35 190.96
  Q 334.07 193.40 331.83 192.20
  Q 331.31 191.92 330.88 192.34
  L 322.23 200.87
  Q 321.90 201.19 322.00 201.64
  L 322.39 203.40
  Q 310.18 209.83 300.63 219.55
  A 0.34 0.34 0.0 0 1 300.06 219.38
  Q 299.31 215.90 300.52 212.55
  Q 300.72 211.98 300.13 212.09
  C 296.00 212.88 292.12 214.01 287.95 214.64
  Q 279.57 215.92 271.67 219.00
  Q 271.20 219.19 271.30 218.69
  Q 272.27 214.17 274.68 210.22
  A 0.55 0.55 0.0 0 0 274.00 209.42
  Q 261.23 214.66 249.49 221.94
  Q 249.06 222.21 249.18 221.72
  C 252.17 208.91 268.07 199.57 279.54 195.08
  A 0.28 0.28 0.0 0 0 279.53 194.55
  L 273.75 192.58
  Q 271.56 191.83 273.68 190.89
  Q 287.35 184.86 302.28 186.69
  A 0.44 0.44 0.0 0 0 302.61 185.91
  L 297.58 181.88
  A 0.41 0.41 0.0 0 1 297.81 181.15
  Q 311.90 180.55 324.21 187.32
  A 0.40 0.40 0.0 0 0 324.71 186.70
  Q 319.48 180.65 312.08 177.61
  A 0.40 0.39 59.9 0 1 312.28 176.85
  L 322.48 178.24
  A 0.97 0.96 67.5 0 0 323.19 176.51
  C 321.20 174.99 319.67 172.98 317.73 171.85
  Q 306.96 165.56 295.26 161.30
  A 0.53 0.53 0.0 0 1 295.33 160.29
  L 307.00 157.74
  A 0.84 0.84 0.0 0 0 307.28 156.21
  Q 297.02 149.52 285.44 145.37
  A 0.23 0.23 0.0 0 1 285.49 144.92
  Q 296.69 144.00 307.24 147.54
  Q 307.93 147.77 307.76 147.06
  L 306.54 142.03
  Q 306.42 141.53 306.92 141.61
  C 316.43 143.08 321.89 149.76 327.28 156.59
  A 0.54 0.54 0.0 0 0 328.25 156.26
  L 328.25 151.29
  Q 328.25 149.84 329.30 150.85
  Q 344.10 165.09 341.23 186.02
  Q 341.15 186.58 341.58 186.22
  C 351.22 178.12 365.61 173.51 377.95 177.94
  A 0.45 0.45 0.0 0 1 378.03 178.75
  L 369.51 183.96
  A 0.59 0.59 0.0 0 0 369.79 185.06
  C 379.83 185.61 389.18 183.50 397.26 191.24
  A 0.33 0.33 0.0 0 1 396.97 191.80
  Q 391.32 190.72 386.07 193.05
  A 0.36 0.36 0.0 0 0 386.07 193.71
  Q 398.58 198.92 405.21 210.78
  Q 405.57 211.42 404.94 211.05
  C 396.95 206.33 390.91 204.00 382.70 203.09
  A 0.60 0.60 0.0 0 0 382.07 203.89
  L 384.73 210.99
  A 0.54 0.54 0.0 0 1 383.93 211.64
  Q 374.06 205.29 363.25 200.72
  A 0.44 0.44 0.0 0 0 362.67 201.30
  Q 364.71 206.05 365.06 211.20
  Q 365.11 211.97 364.53 211.47
  Q 356.06 204.26 345.06 200.54
  Z"
/>
<path fill="#dbe6ee" d="
  M 197.58 154.08
  Q 197.26 153.19 198.66 152.89
  A 1.25 1.24 -12.7 0 1 200.13 153.81
  Q 200.98 157.28 197.86 157.56
  A 1.22 1.22 0.0 0 1 196.89 155.48
  L 197.38 154.99
  Q 197.77 154.60 197.58 154.08
  Z"
/>
<path fill="#7a7b59" d="
  M 163.01 180.26
  L 157.90 182.75
  Q 153.19 181.86 149.60 179.21
  A 0.46 0.46 0.0 0 0 148.90 179.77
  Q 150.09 182.42 149.72 184.86
  Q 148.28 191.36 142.21 193.17
  Q 134.48 192.40 133.03 185.93
  C 132.46 183.36 133.47 180.82 134.29 178.34
  Q 135.79 176.98 134.79 177.31
  L 134.97 177.10
  Q 135.24 176.79 135.11 176.40
  Q 132.23 167.78 139.97 164.67
  C 143.66 163.18 147.67 163.97 150.21 166.96
  A 0.98 0.97 -37.8 0 0 151.53 167.12
  C 155.22 164.44 160.76 164.22 163.60 168.31
  C 165.52 171.08 165.96 175.09 163.80 178.10
  Q 163.09 179.10 163.01 180.26
  Z"
/>
<path fill="#4daf4a" d="
  M 134.29 178.34
  C 133.47 180.82 132.46 183.36 133.03 185.93
  Q 134.48 192.40 142.21 193.17
  Q 142.16 206.99 147.41 218.70
  Q 148.06 220.15 146.67 219.38
  Q 141.11 216.29 136.06 212.40
  A 0.69 0.69 0.0 0 0 134.96 212.83
  C 132.70 225.38 138.69 235.79 146.47 245.21
  Q 146.94 245.78 146.21 245.75
  Q 142.66 245.65 139.62 243.87
  A 0.86 0.85 23.0 0 0 138.37 244.37
  Q 133.86 259.85 139.25 274.97
  A 0.31 0.31 0.0 0 1 138.73 275.27
  Q 127.33 261.95 120.90 245.63
  Q 120.74 245.23 120.50 245.58
  L 116.42 251.59
  A 0.53 0.53 0.0 0 1 115.48 251.43
  Q 114.49 247.90 113.24 244.41
  Q 107.62 228.65 114.60 213.77
  A 0.43 0.43 0.0 0 0 113.94 213.25
  Q 108.85 217.31 105.80 223.06
  Q 105.15 224.29 105.05 222.90
  C 103.77 205.03 116.78 183.08 134.29 178.34
  Z"
/>
<path fill="#88663c" d="
  M 157.90 182.75
  L 160.50 187.15
  A 0.80 0.79 -30.8 0 1 160.22 188.23
  L 157.03 190.15
  A 0.74 0.74 0.0 0 1 156.19 190.09
  L 149.72 184.86
  Q 150.09 182.42 148.90 179.77
  A 0.46 0.46 0.0 0 1 149.60 179.21
  Q 153.19 181.86 157.90 182.75
  Z"
/>
<path fill="#88663c" d="
  M 153.81 194.18
  Q 153.71 194.12 153.81 194.06
  L 164.09 187.62
  Q 164.39 187.43 164.55 187.76
  L 171.59 202.09
  A 0.45 0.44 65.6 0 1 171.37 202.70
  L 166.60 204.77
  Q 166.08 205.00 165.71 204.56
  Q 160.91 198.80 153.81 194.18
  Z"
/>
<path fill="#7a7b59" d="
  M 345.06 200.54
  Q 345.61 201.40 346.26 201.74
  C 346.06 203.44 347.06 204.22 347.20 205.73
  Q 347.84 212.89 339.74 213.22
  Q 335.11 212.88 333.84 206.80
  Q 333.67 204.78 334.53 202.83
  A 0.50 0.50 0.0 0 0 333.74 202.25
  Q 330.94 204.67 327.04 205.11
  Q 323.69 202.84 322.39 203.40
  L 322.00 201.64
  Q 321.90 201.19 322.23 200.87
  L 330.88 192.34
  Q 331.31 191.92 331.83 192.20
  Q 334.07 193.40 335.35 190.96
  Q 335.53 190.61 335.92 190.51
  C 342.54 188.97 348.09 193.58 345.06 200.54
  Z"
/>
<path fill="#dbe6ee" d="
  M 444.51 196.16
  A 1.05 1.05 0.0 0 1 445.98 196.00
  L 446.67 196.54
  A 2.65 2.20 38.6 0 1 447.37 199.92
  L 447.21 200.12
  A 2.65 2.20 38.6 0 1 443.77 200.19
  L 443.08 199.64
  A 1.05 1.05 0.0 0 1 442.91 198.16
  L 444.51 196.16
  Z"
/>
<path fill="#4daf4a" d="
  M 346.26 201.74
  C 359.50 205.82 368.00 220.18 369.53 233.18
  L 369.39 237.34
  A 0.32 0.32 0.0 0 1 368.79 237.50
  Q 366.40 233.58 363.22 230.29
  Q 361.97 229.00 362.29 230.76
  C 362.73 233.21 364.02 235.63 364.38 238.05
  Q 365.54 245.81 363.59 252.10
  L 361.00 259.37
  A 0.65 0.65 0.0 0 1 359.84 259.51
  L 357.11 255.35
  Q 356.72 254.76 356.47 255.42
  Q 351.58 268.07 342.83 278.41
  Q 342.09 279.29 342.31 278.17
  C 342.76 275.90 343.70 273.42 343.97 271.49
  Q 345.22 262.76 342.74 254.21
  A 0.64 0.64 0.0 0 0 341.82 253.83
  Q 339.47 255.15 336.75 255.46
  Q 335.84 255.57 336.39 254.83
  C 342.84 246.08 346.97 239.53 345.46 229.59
  A 0.71 0.71 0.0 0 0 344.37 229.10
  L 336.18 234.45
  A 0.54 0.54 0.0 0 1 335.40 233.77
  Q 339.83 224.22 339.74 213.22
  Q 347.84 212.89 347.20 205.73
  C 347.06 204.22 346.06 203.44 346.26 201.74
  Z"
/>
<path fill="#88663c" d="
  M 163.40 207.94
  L 175.27 201.99
  A 0.46 0.46 0.0 0 1 175.92 202.28
  L 180.01 217.26
  A 0.46 0.46 0.0 0 1 179.81 217.77
  L 175.52 220.50
  A 0.46 0.46 0.0 0 1 174.95 220.44
  L 163.28 208.67
  A 0.46 0.46 0.0 0 1 163.40 207.94
  Z"
/>
<path fill="#88663c" d="
  M 333.84 206.80
  L 328.65 210.75
  A 0.87 0.86 39.0 0 1 327.75 210.84
  L 325.37 209.63
  Q 324.69 209.28 325.06 208.62
  L 327.04 205.11
  Q 330.94 204.67 333.74 202.25
  A 0.50 0.50 0.0 0 1 334.53 202.83
  Q 333.67 204.78 333.84 206.80
  Z"
/>
<path fill="#88663c" d="
  M 321.16 209.55
  A 0.77 0.77 0.0 0 1 322.29 209.13
  L 329.90 213.87
  Q 330.47 214.22 329.90 214.57
  Q 324.89 217.69 321.18 222.29
  A 0.92 0.91 -59.2 0 1 320.12 222.56
  L 316.53 221.09
  Q 315.82 220.80 316.23 220.16
  Q 319.40 215.17 321.16 209.55
  Z"
/>
<path fill="#ffffff" d="
  M 466.07 228.98
  Q 468.18 240.42 466.97 251.98
  L 459.59 251.58
  A 0.66 0.65 -80.8 0 0 458.92 252.07
  C 455.61 264.17 442.09 263.59 434.60 256.17
  A 0.72 0.72 0.0 0 0 433.62 256.14
  C 427.26 261.84 414.13 265.20 408.57 256.36
  A 0.90 0.90 0.0 0 0 407.16 256.21
  C 402.19 261.36 393.68 261.83 387.57 259.71
  Q 382.37 257.90 381.99 252.67
  A 0.65 0.65 0.0 0 0 381.22 252.08
  Q 372.76 253.75 363.59 252.10
  Q 365.54 245.81 364.38 238.05
  C 364.02 235.63 362.73 233.21 362.29 230.76
  Q 361.97 229.00 363.22 230.29
  Q 366.40 233.58 368.79 237.50
  A 0.32 0.32 0.0 0 0 369.39 237.34
  L 369.53 233.18
  Q 372.77 233.78 375.44 232.84
  Q 375.95 232.66 375.96 232.12
  C 376.26 216.14 393.28 215.81 400.96 225.81
  A 0.61 0.61 0.0 0 0 402.00 225.71
  C 408.28 212.76 425.44 212.93 433.56 224.04
  Q 433.93 224.55 434.26 224.02
  Q 438.38 217.58 445.73 216.33
  C 452.61 215.16 464.59 217.47 463.54 226.77
  C 463.40 227.98 463.78 228.94 465.07 229.03
  Q 465.48 229.06 465.50 229.47
  Q 465.50 229.61 465.49 229.75
  A 0.24 0.11 -86.1 0 0 465.72 229.74
  Q 465.75 229.09 466.07 228.98
  Z"
/>
<path fill="#88663c" d="
  M 183.49 236.36
  L 172.07 224.94
  A 0.47 0.47 0.0 0 1 172.15 224.21
  L 184.10 216.70
  A 0.47 0.47 0.0 0 1 184.80 216.98
  L 189.26 234.21
  A 0.47 0.47 0.0 0 1 188.96 234.77
  L 183.98 236.48
  A 0.47 0.47 0.0 0 1 183.49 236.36
  Z"
/>
<path fill="#88663c" d="
  M 312.66 220.40
  A 0.24 0.24 0.0 0 1 313.01 220.23
  L 322.53 225.22
  A 0.41 0.41 0.0 0 1 322.61 225.89
  Q 318.39 229.67 314.64 234.20
  A 2.94 2.93 -15.1 0 1 309.62 231.32
  Q 311.60 225.93 312.66 220.40
  Z"
/>
<path fill="#88663c" d="
  M 306.29 232.29
  L 315.63 238.14
  A 0.50 0.50 0.0 0 1 315.72 238.91
  L 306.83 247.80
  A 0.50 0.50 0.0 0 1 306.33 247.92
  L 302.48 246.73
  A 0.50 0.50 0.0 0 1 302.15 246.13
  L 305.54 232.59
  A 0.50 0.50 0.0 0 1 306.29 232.29
  Z"
/>
<path fill="#88663c" d="
  M 193.46 252.19
  L 181.57 239.71
  Q 181.24 239.37 181.67 239.17
  L 193.72 233.42
  Q 194.34 233.12 194.42 233.80
  Q 195.48 242.45 199.53 250.17
  Q 199.88 250.83 199.16 251.05
  L 194.61 252.48
  Q 193.94 252.69 193.46 252.19
  Z"
/>
<path fill="#88663c" d="
  M 294.25 259.46
  L 298.36 245.69
  A 0.30 0.30 0.0 0 1 298.78 245.51
  L 308.01 250.21
  A 0.30 0.30 0.0 0 1 308.09 250.68
  L 298.81 260.52
  A 0.30 0.30 0.0 0 1 298.54 260.61
  L 294.49 259.84
  A 0.30 0.30 0.0 0 1 294.25 259.46
  Z"
/>
<path fill="#88663c" d="
  M 199.37 268.14
  L 189.14 256.09
  A 0.34 0.34 0.0 0 1 189.28 255.55
  L 203.63 250.41
  A 0.34 0.34 0.0 0 1 204.08 250.69
  L 205.59 265.56
  A 0.34 0.34 0.0 0 1 205.39 265.91
  L 199.76 268.24
  A 0.34 0.34 0.0 0 1 199.37 268.14
  Z"
/>
<path fill="#ffffff" d="
  M 37.61 293.46
  Q 35.67 282.18 35.72 270.71
  C 35.73 267.90 36.60 264.96 36.85 261.96
  Q 37.70 261.78 38.52 263.17
  A 0.52 0.51 54.9 0 0 39.29 263.31
  C 42.05 261.08 45.10 258.56 48.64 258.21
  Q 56.89 257.41 60.62 265.39
  Q 60.86 265.92 61.35 265.60
  C 66.37 262.38 69.94 260.64 75.43 263.32
  Q 80.31 265.70 80.03 271.63
  Q 79.97 272.81 81.14 272.97
  C 83.58 273.32 86.73 274.33 88.28 276.23
  C 90.51 278.98 89.17 282.78 86.29 284.54
  Q 79.65 288.60 72.15 286.10
  A 1.33 1.33 0.0 0 0 70.41 287.19
  C 70.18 288.95 69.76 290.35 68.02 291.22
  Q 58.37 296.02 50.80 287.79
  Q 50.31 287.25 49.80 287.78
  Q 45.05 292.82 37.61 293.46
  Z"
/>
<path fill="#88663c" d="
  M 289.12 271.16
  L 290.35 259.46
  A 0.30 0.30 0.0 0 1 290.75 259.21
  L 302.07 263.17
  A 0.30 0.30 0.0 0 1 302.19 263.65
  L 293.99 273.20
  A 0.30 0.30 0.0 0 1 293.65 273.29
  L 289.31 271.47
  A 0.30 0.30 0.0 0 1 289.12 271.16
  Z"
/>
<path fill="#88663c" d="
  M 195.97 272.75
  Q 195.00 272.39 195.42 271.42
  A 0.76 0.75 -86.4 0 1 195.90 270.99
  Q 202.61 268.91 208.81 265.59
  A 0.51 0.50 73.3 0 1 209.55 265.99
  Q 210.17 272.80 212.44 279.23
  A 0.55 0.54 76.5 0 1 212.00 279.95
  L 204.31 281.07
  A 0.85 0.84 64.9 0 1 203.57 280.80
  L 196.78 273.29
  Q 196.44 272.92 195.97 272.75
  Z"
/>
<path fill="#88663c" d="
  M 284.04 282.32
  L 285.87 271.58
  A 0.35 0.35 0.0 0 1 286.35 271.31
  L 297.03 275.84
  A 0.35 0.35 0.0 0 1 297.15 276.41
  L 290.33 283.54
  A 0.35 0.35 0.0 0 1 290.02 283.64
  L 284.33 282.73
  A 0.35 0.35 0.0 0 1 284.04 282.32
  Z"
/>
<path fill="#88663c" d="
  M 217.24 293.19
  L 217.74 295.61
  A 0.84 0.83 69.3 0 1 217.34 296.50
  L 211.58 299.84
  Q 211.06 300.14 210.83 299.59
  L 208.94 295.03
  L 200.82 284.86
  Q 200.51 284.47 200.99 284.35
  L 216.34 280.62
  Q 216.92 280.48 216.94 281.08
  L 217.24 293.19
  Z"
/>
<path fill="#88663c" d="
  M 287.13 293.73
  L 284.80 297.81
  Q 284.48 298.37 283.91 298.08
  L 280.30 296.26
  Q 279.75 295.98 279.77 295.38
  L 279.87 292.21
  L 280.00 283.70
  A 0.34 0.33 6.3 0 1 280.41 283.38
  L 292.70 285.97
  A 0.31 0.31 0.0 0 1 292.88 286.47
  L 287.13 293.73
  Z"
/>
<path fill="#fec456" d="
  M 279.87 292.21
  L 279.77 295.38
  Q 279.75 295.98 280.30 296.26
  L 283.91 298.08
  Q 284.48 298.37 284.80 297.81
  L 287.13 293.73
  C 314.65 299.39 341.60 314.10 356.26 338.08
  Q 362.69 349.93 363.56 362.44
  Q 363.60 363.01 363.02 363.01
  L 141.50 362.99
  Q 139.84 362.99 139.99 361.34
  Q 141.03 349.51 147.28 338.01
  Q 158.69 319.66 177.57 308.79
  Q 177.84 308.63 179.48 307.18
  C 180.61 306.18 181.71 306.41 182.81 305.83
  Q 187.69 303.28 192.47 300.50
  Q 196.95 297.91 208.94 295.03
  L 210.83 299.59
  Q 211.06 300.14 211.58 299.84
  L 217.34 296.50
  A 0.84 0.83 69.3 0 0 217.74 295.61
  L 217.24 293.19
  C 237.51 289.59 259.57 287.81 279.87 292.21
  Z"
/>
<path fill="#dbe6ee" d="
  M 56.78 299.74
  Q 56.42 299.87 56.20 299.57
  Q 54.28 297.00 56.77 294.58
  A 1.71 1.71 0.0 0 1 59.67 295.74
  Q 59.80 298.65 56.78 299.74
  Z"
/>
<path fill="#dbe6ee" d="
  M 342.20 295.95
  A 0.73 0.73 0.0 0 1 342.16 296.98
  L 341.54 297.56
  A 3.50 1.65 -43.2 0 1 337.86 298.76
  L 337.75 298.64
  A 3.50 1.65 -43.2 0 1 339.18 295.04
  L 339.80 294.46
  A 0.73 0.73 0.0 0 1 340.83 294.49
  L 342.20 295.95
  Z"
/>
<path fill="#6197d3" d="
  M 147.28 338.01
  Q 141.03 349.51 139.99 361.34
  Q 139.84 362.99 141.50 362.99
  L 363.02 363.01
  Q 363.60 363.01 363.56 362.44
  Q 362.69 349.93 356.26 338.08
  Q 412.60 337.90 440.75 338.00
  Q 443.35 338.01 447.77 338.51
  C 400.70 444.70 276.83 494.19 168.98 451.13
  C 116.64 430.23 75.65 389.42 51.86 338.37
  Q 52.16 338.29 52.33 338.22
  Q 52.68 338.06 53.06 338.06
  L 147.28 338.01
  Z
  M 115.23 350.25
  A 1.21 1.21 0.0 0 0 114.02 349.04
  L 71.46 349.04
  A 1.21 1.21 0.0 0 0 70.25 350.25
  L 70.25 350.29
  A 1.21 1.21 0.0 0 0 71.46 351.50
  L 114.02 351.50
  A 1.21 1.21 0.0 0 0 115.23 350.29
  L 115.23 350.25
  Z
  M 423.04 362.09
  A 1.34 1.34 0.0 0 0 421.70 360.75
  L 379.40 360.75
  A 1.34 1.34 0.0 0 0 378.06 362.09
  L 378.06 362.15
  A 1.34 1.34 0.0 0 0 379.40 363.49
  L 421.70 363.49
  A 1.34 1.34 0.0 0 0 423.04 362.15
  L 423.04 362.09
  Z
  M 149.7296 369.2157
  A 1.77 1.77 0.0 0 0 147.9565 367.4488
  L 89.2766 367.5512
  A 1.77 1.77 0.0 0 0 87.5097 369.3243
  L 87.5104 369.7443
  A 1.77 1.77 0.0 0 0 89.2835 371.5112
  L 147.9634 371.4088
  A 1.77 1.77 0.0 0 0 149.7303 369.6357
  L 149.7296 369.2157
  Z
  M 345.9802 372.7784
  A 1.20 1.20 0.0 0 0 344.7844 371.5742
  L 302.2847 371.4258
  A 1.20 1.20 0.0 0 0 301.0805 372.6216
  L 301.0798 372.8216
  A 1.20 1.20 0.0 0 0 302.2756 374.0258
  L 344.7753 374.1742
  A 1.20 1.20 0.0 0 0 345.9795 372.9784
  L 345.9802 372.7784
  Z
  M 264.00 377.28
  A 2.02 2.02 0.0 0 0 261.98 375.26
  L 203.74 375.26
  A 2.02 2.02 0.0 0 0 201.72 377.28
  L 201.72 377.48
  A 2.02 2.02 0.0 0 0 203.74 379.50
  L 261.98 379.50
  A 2.02 2.02 0.0 0 0 264.00 377.48
  L 264.00 377.28
  Z
  M 400.3903 383.8641
  A 1.62 1.62 0.0 0 0 398.7732 382.2413
  L 340.0133 382.1387
  A 1.62 1.62 0.0 0 0 338.3904 383.7559
  L 338.3897 384.1959
  A 1.62 1.62 0.0 0 0 340.0068 385.8187
  L 398.7667 385.9213
  A 1.62 1.62 0.0 0 0 400.3896 384.3041
  L 400.3903 383.8641
  Z
  M 226.68 393.21
  A 1.98 1.98 0.0 0 0 224.70 391.23
  L 133.30 391.23
  A 1.98 1.98 0.0 0 0 131.32 393.21
  L 131.32 393.27
  A 1.98 1.98 0.0 0 0 133.30 395.25
  L 224.70 395.25
  A 1.98 1.98 0.0 0 0 226.68 393.27
  L 226.68 393.21
  Z
  M 251.95 408.44
  A 1.18 1.18 0.0 0 0 250.77 407.26
  L 208.23 407.26
  A 1.18 1.18 0.0 0 0 207.05 408.44
  L 207.05 408.60
  A 1.18 1.18 0.0 0 0 208.23 409.78
  L 250.77 409.78
  A 1.18 1.18 0.0 0 0 251.95 408.60
  L 251.95 408.44
  Z
  M 367.1491 410.0572
  A 1.29 1.29 0.0 0 0 365.8568 408.7695
  L 273.5969 408.9305
  A 1.29 1.29 0.0 0 0 272.3092 410.2228
  L 272.3109 411.2228
  A 1.29 1.29 0.0 0 0 273.6032 412.5105
  L 365.8631 412.3495
  A 1.29 1.29 0.0 0 0 367.1508 411.0572
  L 367.1491 410.0572
  Z
  M 271.89 430.48
  A 1.97 1.97 0.0 0 0 269.92 428.51
  L 178.44 428.51
  A 1.97 1.97 0.0 0 0 176.47 430.48
  L 176.47 430.52
  A 1.97 1.97 0.0 0 0 178.44 432.49
  L 269.92 432.49
  A 1.97 1.97 0.0 0 0 271.89 430.52
  L 271.89 430.48
  Z"
/>
<rect fill="#dbe6ee" x="70.25" y="349.04" width="44.98" height="2.46" rx="1.21"/>
<rect fill="#dbe6ee" x="378.06" y="360.75" width="44.98" height="2.74" rx="1.34"/>
<rect fill="#dbe6ee" x="-31.11" y="-1.98" transform="translate(118.62,369.48) rotate(-0.1)" width="62.22" height="3.96" rx="1.77"/>
<rect fill="#dbe6ee" x="-22.45" y="-1.30" transform="translate(323.53,372.80) rotate(0.2)" width="44.90" height="2.60" rx="1.20"/>
<rect fill="#dbe6ee" x="201.72" y="375.26" width="62.28" height="4.24" rx="2.02"/>
<rect fill="#dbe6ee" x="-31.00" y="-1.84" transform="translate(369.39,384.03) rotate(0.1)" width="62.00" height="3.68" rx="1.62"/>
<rect fill="#dbe6ee" x="131.32" y="391.23" width="95.36" height="4.02" rx="1.98"/>
<rect fill="#dbe6ee" x="207.05" y="407.26" width="44.90" height="2.52" rx="1.18"/>
<rect fill="#dbe6ee" x="-47.42" y="-1.79" transform="translate(319.73,410.64) rotate(-0.1)" width="94.84" height="3.58" rx="1.29"/>
<rect fill="#dbe6ee" x="176.47" y="428.51" width="95.42" height="3.98" rx="1.97"/>
</svg>
